<?xml version="1.0" standalone="no"?>
<!DOCTYPE svg PUBLIC "-//W3C//DTD SVG 20010904//EN"
 "http://www.w3.org/TR/2001/REC-SVG-20010904/DTD/svg10.dtd">
<svg version="1.0" xmlns="http://www.w3.org/2000/svg"
 width="952.000000pt" height="952.000000pt" viewBox="0 0 952.000000 952.000000"
 preserveAspectRatio="xMidYMid meet">
<metadata>
Created by potrace 1.14, written by Peter Selinger 2001-2017
</metadata>
<g transform="translate(0.000000,952.000000) scale(0.100000,-0.100000)"
fill="#000000" stroke="none">
<path d="M155 6310 c-6 -12 -1 -2486 6 -2490 5 -4 912 -5 955 -1 7 1 10 43 10
124 l-1 122 -300 1 c-363 2 -328 0 -322 24 3 11 1 20 -4 20 -5 0 -5 10 0 23 5
14 5 30 0 40 -6 9 -6 17 -2 17 5 0 9 18 8 40 0 22 -3 40 -7 40 -4 0 -4 10 1
23 5 14 5 30 0 40 -6 9 -6 17 -2 17 4 0 8 36 8 80 0 44 -3 80 -7 80 -4 0 -4
10 1 23 5 14 5 30 0 40 -6 9 -6 17 -2 17 6 0 8 169 2 190 -1 3 0 10 1 15 1 6
2 49 1 98 l-1 87 249 0 c190 0 250 3 253 13 2 6 3 62 3 122 l-1 110 -252 3
-253 2 2 55 c1 30 0 58 -4 61 -3 3 -2 16 3 28 4 13 4 29 -1 39 -6 10 -6 17 -1
17 9 0 6 95 -4 111 -3 5 -2 9 3 9 4 0 8 36 8 80 0 44 -3 80 -7 80 -4 0 -4 10
1 23 5 14 5 30 0 40 -6 9 -6 17 -2 17 5 0 9 18 8 40 0 22 -3 40 -7 40 -4 0 -4
10 1 23 5 14 5 30 0 40 -6 9 -6 17 -1 17 5 0 8 24 8 52 l-1 53 304 0 304 0 8
23 c6 15 5 21 -1 17 -6 -4 -7 2 -1 18 7 17 6 28 -2 37 -9 10 -9 14 0 17 9 3
10 10 3 24 -6 10 -7 19 -3 19 4 0 8 11 8 25 0 14 -4 25 -8 25 -4 0 -3 9 3 19
7 15 7 22 -2 28 -14 8 -958 12 -963 3z"/>
<path d="M7729 6293 c-14 -17 -18 -63 -6 -80 5 -7 4 -21 -3 -32 -7 -14 -7 -27
-2 -37 5 -9 6 -32 2 -50 -5 -20 -4 -34 1 -34 6 0 6 -8 2 -17 -10 -22 -10 -54
0 -70 5 -7 3 -22 -3 -33 -7 -13 -7 -26 -2 -36 5 -9 6 -32 2 -50 -5 -20 -4 -34
1 -34 6 0 6 -8 2 -17 -10 -22 -10 -54 0 -70 5 -7 3 -22 -3 -33 -7 -13 -7 -26
-2 -36 5 -9 6 -32 2 -50 -5 -20 -4 -34 1 -34 6 0 6 -8 2 -17 -10 -22 -10 -54
0 -70 5 -7 3 -22 -3 -33 -7 -13 -7 -26 -2 -36 5 -9 6 -32 2 -50 -5 -20 -4 -34
1 -34 6 0 6 -8 2 -17 -10 -22 -10 -54 0 -70 5 -7 3 -22 -3 -33 -7 -13 -7 -26
-2 -36 5 -9 6 -32 2 -50 -5 -20 -4 -34 1 -34 6 0 6 -8 2 -17 -10 -22 -10 -54
0 -70 5 -7 3 -22 -3 -33 -7 -13 -7 -26 -2 -36 5 -9 6 -32 2 -50 -5 -20 -4 -34
1 -34 6 0 6 -8 2 -17 -10 -22 -10 -54 0 -70 5 -7 3 -22 -3 -33 -7 -13 -7 -26
-2 -36 5 -9 6 -32 2 -50 -5 -20 -4 -34 1 -34 6 0 6 -8 2 -17 -10 -22 -10 -54
0 -70 5 -7 3 -22 -3 -33 -7 -12 -7 -26 -2 -36 5 -8 6 -35 2 -59 -4 -24 -4 -49
0 -56 4 -6 4 -26 0 -44 -4 -18 -4 -39 0 -46 5 -7 5 -22 0 -34 -5 -12 -5 -27 0
-34 4 -7 4 -28 0 -46 -4 -18 -4 -39 0 -46 5 -7 5 -22 0 -34 -5 -12 -5 -27 0
-34 4 -7 4 -28 0 -46 -4 -18 -4 -39 0 -45 4 -7 4 -25 0 -40 -4 -15 -4 -33 0
-41 5 -7 4 -21 -1 -31 -5 -10 -6 -19 -2 -19 59 -10 143 -15 143 -8 0 6 86 3
106 -5 8 -3 14 -2 14 2 0 5 16 7 35 6 l35 -3 0 1248 0 1249 -35 4 c-19 2 -35
0 -35 -4 0 -5 -9 -4 -20 2 -11 6 -20 7 -20 2 0 -5 -18 -6 -40 -2 -22 4 -40 3
-40 -2 0 -5 -9 -4 -20 2 -11 6 -20 7 -20 2 0 -5 -17 -6 -40 -2 -29 5 -43 3
-51 -7z"/>
<path d="M4412 6282 c-36 -11 -91 -60 -111 -100 -58 -114 -45 -310 27 -397 77
-94 223 -93 300 1 43 52 54 90 58 207 4 104 -11 165 -57 226 -42 56 -142 85
-217 63z m126 -115 c32 -30 50 -100 46 -182 -3 -83 -13 -113 -49 -149 -32 -32
-72 -34 -109 -5 -39 31 -56 82 -57 171 0 63 4 89 23 126 36 72 94 88 146 39z"/>
<path d="M5031 6282 c-13 -2 -29 -8 -35 -13 -6 -6 -36 -25 -66 -43 -63 -37
-76 -69 -40 -101 21 -19 22 -19 61 2 l39 21 0 -199 0 -199 25 -16 c27 -18 61
-12 73 14 6 13 9 450 3 509 -1 17 -32 30 -60 25z"/>
<path d="M2822 5864 c0 -140 -2 -258 -5 -260 -3 -3 -45 -6 -93 -7 l-89 -2 0
-107 -1 -108 93 0 93 0 0 -27 c1 -16 2 -305 4 -643 1 -338 6 -626 10 -640 4
-14 10 -36 13 -50 10 -41 67 -124 109 -156 45 -35 128 -68 149 -60 8 3 17 1
20 -4 3 -4 53 -6 113 -4 204 7 202 6 197 86 -2 35 0 46 8 41 9 -5 9 -3 1 8 -6
8 -10 38 -10 67 l2 52 -71 -3 c-131 -6 -184 19 -203 96 -7 26 -10 266 -10 640
l0 597 143 0 143 0 -1 68 c0 37 3 73 7 80 4 7 3 12 -1 12 -5 0 -8 13 -7 29 l2
29 -122 0 c-66 0 -131 1 -143 1 l-22 1 0 228 c0 125 0 242 -1 260 l0 32 -164
0 -164 0 0 -256z"/>
<path d="M4115 5619 c-176 -13 -309 -86 -379 -209 -17 -30 -31 -57 -32 -60 0
-3 -3 -12 -7 -20 -14 -34 -28 -101 -22 -109 3 -5 1 -11 -5 -13 -5 -1 -11 -39
-12 -82 l-3 -80 55 -3 c30 -1 103 -4 163 -6 l107 -4 0 66 c1 149 29 220 105
258 39 21 132 20 171 0 65 -33 83 -93 89 -288 l5 -136 -93 -38 c-50 -21 -120
-51 -154 -67 -35 -15 -64 -27 -66 -26 -1 2 -9 -3 -17 -10 -8 -7 -49 -34 -90
-61 -207 -136 -286 -285 -283 -536 3 -222 158 -399 348 -399 84 0 111 6 169
35 64 31 132 103 168 176 17 35 31 63 32 63 1 0 3 -12 4 -27 1 -16 7 -55 13
-88 6 -33 13 -73 15 -89 6 -49 12 -51 166 -50 135 0 143 1 141 20 -1 10 -4 44
-7 74 -15 151 -19 284 -20 768 -3 564 -4 587 -56 707 -74 172 -249 253 -505
234z m233 -1150 l0 -251 -47 -47 c-55 -57 -107 -89 -138 -86 -13 1 -23 -2 -23
-6 0 -4 -16 -3 -35 1 -70 16 -107 62 -123 150 -23 129 11 234 104 321 45 41
119 99 128 99 3 0 29 16 58 34 29 19 58 35 64 35 9 1 12 -69 12 -250z"/>
<path d="M2000 5601 c-89 -28 -180 -80 -255 -145 -27 -23 -30 -24 -36 -8 -4 9
-3 24 2 33 5 9 5 19 2 23 -4 3 -7 25 -7 49 l-1 42 -157 2 c-92 1 -160 -3 -164
-8 -8 -14 -8 -1205 0 -1218 4 -6 4 -11 -1 -11 -10 0 -9 -212 1 -228 4 -7 4
-12 -1 -12 -10 0 -8 -213 1 -229 4 -6 3 -11 -2 -11 -11 0 -10 -42 2 -55 5 -6
73 -10 165 -10 l156 1 1 76 c1 41 4 81 8 87 4 6 4 11 -1 11 -9 0 -8 174 2 190
3 5 3 10 -2 10 -9 0 -8 134 2 149 3 6 3 11 -2 11 -10 0 -8 93 1 109 4 6 4 11
-1 11 -9 0 -8 254 2 269 3 6 3 11 -2 11 -10 0 -9 173 1 189 4 6 4 11 -1 11 -9
0 -8 134 2 149 3 6 3 11 -2 11 -4 0 -7 33 -5 74 l3 74 55 37 c76 53 145 74
203 63 74 -14 102 -53 105 -145 0 -24 3 -43 6 -43 3 0 5 -29 5 -65 0 -36 -4
-65 -9 -65 -5 0 -4 -6 1 -12 8 -12 9 -196 1 -295 -2 -24 -1 -43 2 -43 3 0 4
-28 2 -62 -1 -35 -2 -72 -1 -83 1 -20 0 -208 -1 -295 0 -25 1 -73 3 -107 1
-35 -1 -63 -6 -63 -6 0 -6 -5 0 -12 5 -7 8 -60 7 -118 -1 -58 0 -112 2 -120 3
-13 29 -15 159 -14 85 0 158 3 161 7 6 6 7 1482 0 1527 -18 127 -69 211 -155
252 -46 22 -179 21 -251 -1z"/>
<path d="M7410 5588 c-30 -15 -63 -36 -75 -46 -11 -9 -32 -25 -46 -34 -14 -9
-41 -33 -60 -52 -18 -20 -36 -36 -39 -36 -3 0 -23 24 -45 54 -22 30 -46 57
-55 60 -20 7 -53 29 -62 41 -4 6 -8 6 -8 2 0 -4 -8 -3 -17 2 -29 15 -83 23
-175 25 -103 3 -206 -20 -270 -60 -52 -33 -118 -96 -118 -113 0 -7 -4 -9 -10
-6 -5 3 -10 -1 -10 -9 0 -9 -5 -16 -12 -16 -6 0 -8 -3 -5 -7 4 -3 0 -15 -10
-25 -9 -10 -13 -18 -10 -18 3 0 -3 -19 -13 -43 -10 -23 -22 -58 -25 -77 -3
-19 -8 -44 -12 -55 -3 -11 -7 -38 -9 -60 -1 -22 -3 -41 -4 -42 -5 -8 -3 -61 2
-74 3 -9 2 -22 -2 -30 -5 -8 -4 -19 2 -26 6 -7 6 -13 1 -13 -5 0 -8 -15 -7
-32 1 -18 3 -33 4 -33 1 0 3 -13 5 -30 6 -51 14 -100 15 -100 1 0 3 -11 6 -25
4 -27 10 -41 44 -112 13 -27 27 -48 32 -48 4 0 8 -5 8 -11 0 -6 21 -31 47 -56
l46 -45 -24 -19 c-13 -10 -28 -19 -33 -19 -5 0 -7 -3 -3 -6 3 -3 -7 -17 -23
-31 -16 -13 -32 -33 -35 -44 -4 -10 -10 -17 -15 -14 -4 3 -11 -6 -14 -20 -4
-14 -11 -25 -17 -25 -6 0 -7 -4 -4 -10 3 -5 2 -10 -4 -10 -5 0 -8 -9 -6 -20 2
-11 0 -20 -4 -20 -4 0 -8 -6 -9 -12 -8 -107 6 -155 60 -203 19 -16 38 -32 44
-34 5 -2 20 -8 33 -13 l25 -9 -32 -19 c-18 -11 -35 -20 -37 -20 -10 0 -90 -74
-121 -113 -20 -24 -33 -54 -27 -61 3 -3 2 -6 -4 -6 -16 0 -30 -68 -27 -135 5
-117 61 -198 178 -255 93 -46 181 -62 351 -65 137 -3 194 1 280 20 17 3 44 8
60 11 17 3 32 10 33 15 2 5 13 9 23 9 22 0 119 59 153 93 32 32 74 106 89 158
18 57 18 209 1 273 -16 61 -44 126 -54 126 -4 0 -10 9 -13 19 -6 25 -91 86
-147 107 -25 9 -52 19 -60 22 -8 3 -22 6 -30 7 -8 1 -26 4 -40 8 -14 3 -56 9
-95 12 -197 15 -270 22 -270 25 0 1 -16 4 -35 7 -19 2 -44 13 -54 23 -19 19
-32 80 -17 80 4 0 8 6 8 14 0 7 10 30 23 50 15 26 27 35 38 31 23 -9 120 -18
167 -17 40 1 120 9 120 12 0 2 38 11 53 12 6 1 12 5 12 10 0 5 4 7 9 4 12 -8
120 64 149 99 50 58 102 168 108 226 0 9 4 20 7 25 8 14 20 170 18 239 -3 107
-6 145 -11 145 -3 0 -6 8 -7 18 -2 35 -9 78 -16 88 -3 6 -9 24 -11 41 -5 27
-2 31 42 51 66 30 182 73 182 68 0 -3 12 1 27 9 15 8 30 12 35 9 11 -7 10 3
-6 39 -7 18 -26 62 -41 100 -15 37 -30 69 -34 70 -3 2 -31 -9 -61 -25z m-517
-219 c20 -5 37 -15 37 -21 0 -6 3 -9 6 -5 8 7 34 -17 34 -32 0 -6 4 -11 8 -11
16 0 38 -79 47 -163 8 -76 3 -373 -5 -384 -2 -2 -3 -6 -4 -10 -1 -5 -5 -14 -9
-20 -5 -7 -6 -17 -3 -22 3 -4 -3 -19 -14 -31 -11 -13 -20 -27 -20 -31 0 -4
-16 -17 -35 -29 -43 -26 -126 -36 -181 -21 -41 11 -104 68 -104 94 0 7 -4 17
-9 23 -9 9 -17 38 -26 97 -2 15 -7 32 -10 37 -3 6 0 10 7 10 8 0 9 3 3 8 -12
8 -12 255 0 312 11 53 13 65 15 68 2 1 3 5 5 10 9 34 65 115 65 95 0 -4 4 -3
8 3 18 28 118 40 185 23z m-58 -1494 c33 -3 77 -6 98 -7 20 -1 37 -5 37 -8 0
-3 10 -6 23 -6 49 -3 77 -9 77 -17 0 -4 4 -6 9 -3 12 8 82 -56 86 -79 2 -11 4
-20 5 -20 7 0 4 -97 -2 -101 -5 -3 -6 -9 -3 -13 7 -13 -58 -67 -97 -80 -68
-23 -93 -25 -233 -25 -143 0 -215 8 -226 26 -3 5 -8 8 -10 7 -7 -6 -44 25 -60
51 -19 31 -18 115 2 150 31 53 67 99 73 93 3 -3 6 0 6 7 0 7 8 19 18 26 17 13
41 13 197 -1z"/>
<path d="M5687 5604 c-1 -2 -14 -5 -27 -8 -63 -13 -75 -17 -110 -35 -21 -11
-41 -17 -44 -14 -3 4 -6 1 -6 -5 0 -7 -7 -12 -15 -12 -8 0 -15 -4 -15 -10 0
-5 -7 -10 -15 -10 -7 0 -18 -8 -24 -17 -5 -10 -13 -16 -16 -15 -4 2 -21 -9
-38 -25 -52 -47 -53 -47 -51 35 0 42 -3 82 -7 87 -6 8 -247 12 -314 6 -7 -1
-10 -304 -10 -890 l0 -890 35 0 c19 0 46 0 60 0 28 1 29 1 88 -3 23 -2 42 -1
42 2 0 3 24 5 52 5 l53 0 0 710 c1 604 3 713 15 733 8 12 18 22 22 22 3 0 25
12 48 28 23 15 45 27 49 27 3 0 12 4 19 8 20 13 101 16 137 5 30 -10 64 -50
73 -88 2 -8 5 -57 5 -107 1 -54 6 -93 12 -93 6 0 4 -4 -3 -9 -8 -4 -14 -12
-14 -16 0 -4 6 -12 14 -16 8 -6 9 -12 3 -16 -12 -10 -15 -103 -2 -103 4 0 5
-5 1 -12 -12 -18 -11 -102 1 -110 7 -5 7 -11 0 -15 -12 -10 -15 -103 -2 -103
4 0 5 -5 1 -12 -12 -18 -11 -102 1 -110 7 -6 7 -10 0 -15 -13 -10 -14 -96 0
-105 7 -6 7 -10 -1 -15 -13 -10 -13 -65 1 -75 7 -5 6 -8 -1 -8 -13 0 -13 -70
1 -70 6 0 6 -3 -1 -8 -13 -9 -13 -64 1 -74 7 -5 6 -8 -1 -8 -13 0 -13 -70 1
-70 7 0 7 -3 0 -8 -13 -9 -13 -72 0 -72 6 0 6 -3 -1 -8 -13 -9 -13 -64 1 -74
7 -5 6 -8 0 -8 -9 0 -12 -56 -6 -102 1 -8 18 -9 76 -8 54 2 72 2 123 -2 23 -2
42 0 42 3 0 3 20 4 44 3 l44 -2 -2 164 c0 103 3 164 9 164 7 0 7 3 0 8 -6 4
-10 218 -11 602 0 508 -4 653 -15 668 -1 1 -2 5 -3 10 -15 59 -83 151 -113
152 -7 0 -13 5 -13 12 0 6 -3 9 -6 5 -4 -3 -18 0 -33 7 -22 11 -145 19 -154
10z"/>
<path d="M8738 5598 c-2 -4 -15 -9 -30 -10 -16 -1 -28 -7 -28 -12 0 -5 -3 -7
-6 -4 -13 14 -127 -51 -159 -92 -11 -14 -27 -32 -37 -42 -9 -9 -14 -18 -12
-21 2 -2 -2 -10 -11 -17 -8 -7 -15 -21 -15 -31 0 -11 -4 -19 -8 -19 -5 0 -16
-26 -25 -57 -30 -105 -37 -155 -42 -306 -3 -65 -7 -122 -10 -127 -3 -5 -2 -11
3 -14 5 -3 7 -22 4 -43 -2 -21 -3 -42 -3 -48 1 -5 1 -30 1 -55 0 -25 1 -58 1
-75 1 -34 1 -71 -1 -100 -4 -80 14 -296 31 -370 5 -22 12 -49 14 -60 7 -32 37
-98 53 -117 8 -10 12 -18 9 -18 -14 0 77 -89 108 -106 19 -10 35 -22 35 -26 0
-5 9 -8 20 -8 11 0 20 -4 20 -8 0 -4 8 -9 18 -9 34 -4 77 -11 77 -13 0 -10
201 -15 250 -6 74 13 92 19 137 41 27 13 48 22 48 19 0 -3 11 6 25 20 14 14
31 29 39 33 40 23 111 168 131 268 11 54 18 255 9 256 -5 0 -17 2 -26 4 -10 2
-20 -1 -24 -6 -3 -5 -10 -7 -15 -3 -16 10 -89 12 -89 2 0 -5 -5 -6 -10 -3 -15
9 -110 12 -110 4 0 -4 -9 -5 -20 -2 -19 5 -20 0 -21 -83 0 -101 -7 -168 -21
-204 -5 -14 -10 -27 -10 -30 -3 -14 -63 -65 -82 -69 -44 -10 -156 -3 -156 10
0 4 -8 9 -19 12 -21 5 -66 77 -77 122 -4 17 -9 138 -11 271 l-4 240 350 0
c305 -1 351 1 352 14 1 13 -2 233 -5 367 0 29 -3 53 -6 53 -3 0 -6 15 -6 33
-3 80 -32 187 -67 245 -55 91 -63 102 -79 108 -10 3 -18 10 -18 15 0 5 -7 9
-15 9 -8 0 -15 4 -15 8 0 14 -102 52 -147 55 -13 0 -23 4 -23 8 0 9 -269 6
-272 -3z m172 -242 c0 -7 3 -7 8 0 14 23 91 -24 114 -70 28 -55 32 -85 32
-266 l1 -154 -189 -1 -188 0 5 155 c6 159 12 208 27 224 5 5 6 14 4 20 -5 12
52 87 64 84 4 -1 14 1 22 5 45 17 100 19 100 3z"/>
</g>
</svg>
